<svg version="1.2" xmlns="http://www.w3.org/2000/svg" viewBox="0 0 1040 687" width="2422" height="1600">
	<title>3tw9_e9pr_211224-ai</title>
	<defs>
		<linearGradient id="g1" x1="915.1" y1="96.1" x2="818.2" y2="165.5" gradientUnits="userSpaceOnUse">
			<stop offset="0" stop-color="#010415"/>
			<stop offset=".5" stop-color="#133848"/>
			<stop offset=".9" stop-color="#2b0e48"/>
			<stop offset="1" stop-color="#2b0e48"/>
		</linearGradient>
		<linearGradient id="g2" x1="785.5" y1="129.9" x2="797.6" y2="122.3" gradientUnits="userSpaceOnUse">
			<stop offset="0" stop-color="#ffffff"/>
			<stop offset="1" stop-color="#133848"/>
		</linearGradient>
		<linearGradient id="g3" x1="803.3" y1="94.8" x2="826.9" y2="128.4" gradientUnits="userSpaceOnUse">
			<stop offset="0" stop-color="#010415"/>
			<stop offset=".5" stop-color="#133848"/>
			<stop offset=".9" stop-color="#2b0e48"/>
			<stop offset="1" stop-color="#2b0e48"/>
		</linearGradient>
		<linearGradient id="g4" x1="797.8" y1="414.6" x2="701" y2="484" gradientUnits="userSpaceOnUse">
			<stop offset="0" stop-color="#010415"/>
			<stop offset=".5" stop-color="#133848"/>
			<stop offset=".9" stop-color="#2b0e48"/>
			<stop offset="1" stop-color="#2b0e48"/>
		</linearGradient>
		<linearGradient id="g5" x1="668.2" y1="448.4" x2="680.4" y2="440.8" gradientUnits="userSpaceOnUse">
			<stop offset="0" stop-color="#ffffff"/>
			<stop offset="1" stop-color="#133848"/>
		</linearGradient>
		<linearGradient id="g6" x1="686" y1="413.4" x2="709.6" y2="446.9" gradientUnits="userSpaceOnUse">
			<stop offset="0" stop-color="#010415"/>
			<stop offset=".5" stop-color="#133848"/>
			<stop offset=".9" stop-color="#2b0e48"/>
			<stop offset="1" stop-color="#2b0e48"/>
		</linearGradient>
		<linearGradient id="g7" x1="500" y1="66.5" x2="446.9" y2="104.6" gradientUnits="userSpaceOnUse">
			<stop offset="0" stop-color="#010415"/>
			<stop offset=".5" stop-color="#133848"/>
			<stop offset=".9" stop-color="#2b0e48"/>
			<stop offset="1" stop-color="#2b0e48"/>
		</linearGradient>
		<linearGradient id="g8" x1="428.9" y1="85.1" x2="435.6" y2="80.9" gradientUnits="userSpaceOnUse">
			<stop offset="0" stop-color="#ffffff"/>
			<stop offset="1" stop-color="#133848"/>
		</linearGradient>
		<linearGradient id="g9" x1="438.7" y1="65.9" x2="451.6" y2="84.3" gradientUnits="userSpaceOnUse">
			<stop offset="0" stop-color="#010415"/>
			<stop offset=".5" stop-color="#133848"/>
			<stop offset=".9" stop-color="#2b0e48"/>
			<stop offset="1" stop-color="#2b0e48"/>
		</linearGradient>
	</defs>
	<style>
		.s0 { fill: #002b4a } 
		.s1 { fill: #f6faf0 } 
		.s2 { mix-blend-mode: screen;fill: url(#g1) } 
		.s3 { mix-blend-mode: screen;fill: url(#g2) } 
		.s4 { mix-blend-mode: screen;fill: url(#g3) } 
		.s5 { mix-blend-mode: screen;fill: url(#g4) } 
		.s6 { mix-blend-mode: screen;fill: url(#g5) } 
		.s7 { mix-blend-mode: screen;fill: url(#g6) } 
		.s8 { mix-blend-mode: screen;fill: url(#g7) } 
		.s9 { mix-blend-mode: screen;fill: url(#g8) } 
		.s10 { mix-blend-mode: screen;fill: url(#g9) } 
	</style>
	<g id="Layer 1">
		<g id="&lt;Clip Group&gt;">
			<g id="&lt;Group&gt;">
				<path id="&lt;Path&gt;" class="s0" d="m1052 1066.3h-1063.6v-1079.9h1063.6z"/>
				<g id="&lt;Group&gt;">
					<g id="&lt;Group&gt;">
						<g id="&lt;Group&gt;">
							<g id="&lt;Group&gt;">
								<path id="&lt;Path&gt;" class="s1" d="m1028.5 189.4c-0.9 0.2-1.7-0.3-1.9-1.1-0.2-0.9 0.3-1.7 1.2-1.9 0.8-0.2 1.6 0.3 1.8 1.2 0.2 0.8-0.3 1.6-1.1 1.8z"/>
								<path id="&lt;Path&gt;" class="s1" d="m953.4 189.8c-0.9 0.2-1.7-0.3-1.9-1.2-0.2-0.8 0.3-1.7 1.2-1.9 0.8-0.1 1.7 0.4 1.9 1.2 0.1 0.9-0.4 1.7-1.2 1.9z"/>
							</g>
							<g id="&lt;Group&gt;">
								<path id="&lt;Path&gt;" class="s1" d="m830.4 156c0 0.9-0.7 1.6-1.6 1.6-0.9 0-1.6-0.7-1.6-1.6 0-0.9 0.7-1.6 1.6-1.6 0.9 0 1.6 0.7 1.6 1.6z"/>
								<path id="&lt;Path&gt;" class="s1" d="m882.9 139.2c0 0.9-0.7 1.6-1.5 1.6-0.9 0-1.6-0.7-1.6-1.6 0-0.8 0.7-1.5 1.6-1.5 0.8 0 1.5 0.7 1.5 1.5z"/>
								<path id="&lt;Path&gt;" class="s1" d="m866.6 212.5c0 0.9-0.7 1.6-1.6 1.6-0.9 0-1.6-0.7-1.6-1.6 0-0.9 0.7-1.6 1.6-1.6 0.9 0 1.6 0.7 1.6 1.6z"/>
							</g>
							<g id="&lt;Group&gt;">
								<path id="&lt;Path&gt;" class="s1" d="m885 11.8c-0.8 0.1-1.7-0.4-1.9-1.2-0.2-0.9 0.4-1.7 1.2-1.9 0.9-0.2 1.7 0.3 1.9 1.2 0.2 0.8-0.4 1.7-1.2 1.9z"/>
								<path id="&lt;Path&gt;" class="s1" d="m912.9 59.3c-0.8 0.2-1.7-0.3-1.8-1.1-0.2-0.9 0.3-1.7 1.1-1.9 0.9-0.2 1.7 0.3 1.9 1.2 0.2 0.8-0.3 1.7-1.2 1.8z"/>
								<path id="&lt;Path&gt;" class="s1" d="m837.8 59.5c-0.8 0.2-1.6-0.4-1.8-1.2-0.2-0.8 0.3-1.7 1.1-1.9 0.9-0.2 1.7 0.4 1.9 1.2 0.2 0.9-0.3 1.7-1.2 1.9z"/>
							</g>
							<g id="&lt;Group&gt;">
								<path id="&lt;Path&gt;" class="s1" d="m692.1 104.3c0 0.8-0.6 1.5-1.5 1.5-0.9 0-1.6-0.7-1.6-1.5 0-0.9 0.7-1.6 1.6-1.6 0.9 0 1.5 0.7 1.5 1.6z"/>
								<path id="&lt;Path&gt;" class="s1" d="m744.7 87.5c0 0.8-0.7 1.5-1.5 1.5-0.9 0-1.6-0.7-1.6-1.5 0-0.9 0.7-1.6 1.6-1.6 0.8 0 1.5 0.7 1.5 1.6z"/>
								<path id="&lt;Path&gt;" class="s1" d="m728.4 160.8c0 0.8-0.7 1.5-1.6 1.5-0.9 0-1.6-0.7-1.6-1.5 0-0.9 0.7-1.6 1.6-1.6 0.9 0 1.6 0.7 1.6 1.6z"/>
							</g>
						</g>
						<g id="&lt;Group&gt;">
							<g id="&lt;Group&gt;">
								<path id="&lt;Path&gt;" class="s1" d="m697.4 189.4c-0.9 0.2-1.7-0.3-1.9-1.1-0.2-0.9 0.3-1.7 1.2-1.9 0.8-0.2 1.6 0.3 1.8 1.2 0.2 0.8-0.3 1.6-1.1 1.8z"/>
								<path id="&lt;Path&gt;" class="s1" d="m622.3 189.8c-0.9 0.2-1.7-0.3-1.9-1.2-0.2-0.8 0.3-1.7 1.2-1.9 0.8-0.1 1.7 0.4 1.8 1.2 0.2 0.9-0.3 1.7-1.1 1.9z"/>
							</g>
							<g id="&lt;Group&gt;">
								<path id="&lt;Path&gt;" class="s1" d="m499.3 156c-0.1 0.9-0.7 1.6-1.6 1.6-0.9 0-1.6-0.7-1.6-1.6 0-0.9 0.7-1.6 1.6-1.6 0.9 0 1.5 0.7 1.5 1.6z"/>
								<path id="&lt;Path&gt;" class="s1" d="m551.8 139.2c0 0.9-0.7 1.6-1.5 1.6-0.9 0-1.6-0.7-1.6-1.6 0-0.8 0.7-1.5 1.6-1.5 0.8 0 1.5 0.7 1.5 1.5z"/>
								<path id="&lt;Path&gt;" class="s1" d="m535.5 212.5c0 0.9-0.7 1.6-1.6 1.6-0.9 0-1.6-0.7-1.6-1.6 0-0.9 0.7-1.6 1.6-1.6 0.9 0 1.6 0.7 1.6 1.6z"/>
							</g>
							<g id="&lt;Group&gt;">
								<path id="&lt;Path&gt;" class="s1" d="m553.9 11.8c-0.8 0.1-1.7-0.4-1.9-1.2-0.2-0.9 0.4-1.7 1.2-1.9 0.9-0.2 1.7 0.3 1.9 1.2 0.2 0.8-0.4 1.7-1.2 1.9z"/>
								<path id="&lt;Path&gt;" class="s1" d="m581.8 59.3c-0.8 0.2-1.7-0.3-1.9-1.1-0.1-0.9 0.4-1.7 1.2-1.9 0.9-0.2 1.7 0.3 1.9 1.2 0.2 0.8-0.3 1.7-1.2 1.8z"/>
								<path id="&lt;Path&gt;" class="s1" d="m506.7 59.5c-0.8 0.2-1.6-0.4-1.8-1.2-0.2-0.8 0.3-1.7 1.1-1.9 0.9-0.2 1.7 0.4 1.9 1.2 0.2 0.9-0.3 1.7-1.2 1.9z"/>
							</g>
							<g id="&lt;Group&gt;">
								<path id="&lt;Path&gt;" class="s1" d="m361 104.3c0 0.8-0.7 1.5-1.5 1.5-0.9 0-1.6-0.7-1.6-1.5 0-0.9 0.7-1.6 1.6-1.6 0.8 0 1.5 0.7 1.5 1.6z"/>
								<path id="&lt;Path&gt;" class="s1" d="m413.6 87.5c0 0.8-0.7 1.5-1.6 1.5-0.8 0-1.5-0.7-1.5-1.5 0-0.9 0.7-1.6 1.5-1.6 0.9 0 1.6 0.7 1.6 1.6z"/>
								<path id="&lt;Path&gt;" class="s1" d="m397.3 160.8c-0.1 0.8-0.7 1.5-1.6 1.5-0.9 0-1.6-0.7-1.6-1.5 0-0.9 0.7-1.6 1.6-1.6 0.9 0 1.5 0.7 1.5 1.6z"/>
							</g>
						</g>
						<g id="&lt;Group&gt;">
							<g id="&lt;Group&gt;">
								<path id="&lt;Path&gt;" class="s1" d="m366.3 189.4c-0.9 0.2-1.7-0.3-1.9-1.1-0.2-0.9 0.3-1.7 1.2-1.9 0.8-0.2 1.6 0.3 1.8 1.2 0.2 0.8-0.3 1.6-1.2 1.8z"/>
								<path id="&lt;Path&gt;" class="s1" d="m291.2 189.8c-0.9 0.2-1.7-0.3-1.9-1.2-0.2-0.8 0.3-1.7 1.2-1.9 0.8-0.1 1.7 0.4 1.8 1.2 0.2 0.9-0.3 1.7-1.1 1.9z"/>
							</g>
							<g id="&lt;Group&gt;">
								<path id="&lt;Path&gt;" class="s1" d="m168.1 156c0 0.9-0.7 1.6-1.5 1.6-0.9 0-1.6-0.7-1.6-1.6 0-0.9 0.7-1.6 1.6-1.6 0.8 0 1.5 0.7 1.5 1.6z"/>
								<path id="&lt;Path&gt;" class="s1" d="m220.7 139.2c0 0.9-0.7 1.6-1.6 1.6-0.8 0-1.5-0.7-1.5-1.6 0-0.8 0.7-1.5 1.5-1.5 0.9 0 1.6 0.7 1.6 1.5z"/>
								<path id="&lt;Path&gt;" class="s1" d="m204.4 212.5c0 0.9-0.7 1.6-1.6 1.6-0.9 0-1.6-0.7-1.6-1.6 0-0.9 0.7-1.6 1.6-1.6 0.9 0 1.6 0.7 1.6 1.6z"/>
							</g>
							<g id="&lt;Group&gt;">
								<path id="&lt;Path&gt;" class="s1" d="m222.8 11.8c-0.8 0.1-1.7-0.4-1.9-1.2-0.2-0.9 0.4-1.7 1.2-1.9 0.8-0.2 1.7 0.3 1.9 1.2 0.2 0.8-0.4 1.7-1.2 1.9z"/>
								<path id="&lt;Path&gt;" class="s1" d="m250.7 59.3c-0.8 0.2-1.7-0.3-1.9-1.1-0.2-0.9 0.4-1.7 1.2-1.9 0.9-0.2 1.7 0.3 1.9 1.2 0.2 0.8-0.4 1.7-1.2 1.8z"/>
								<path id="&lt;Path&gt;" class="s1" d="m175.6 59.5c-0.8 0.2-1.7-0.4-1.8-1.2-0.2-0.8 0.3-1.7 1.1-1.9 0.9-0.2 1.7 0.4 1.9 1.2 0.2 0.9-0.3 1.7-1.2 1.9z"/>
							</g>
							<g id="&lt;Group&gt;">
								<path id="&lt;Path&gt;" class="s1" d="m29.9 104.3c0 0.8-0.7 1.5-1.5 1.5-0.9 0-1.6-0.7-1.6-1.5 0-0.9 0.7-1.6 1.6-1.6 0.8 0 1.5 0.7 1.5 1.6z"/>
								<path id="&lt;Path&gt;" class="s1" d="m82.5 87.5c0 0.8-0.7 1.5-1.6 1.5-0.8 0-1.5-0.7-1.5-1.5 0-0.9 0.7-1.6 1.5-1.6 0.9 0 1.6 0.7 1.6 1.6z"/>
								<path id="&lt;Path&gt;" class="s1" d="m66.1 160.8c0 0.8-0.7 1.5-1.5 1.5-0.9 0-1.6-0.7-1.6-1.5 0-0.9 0.7-1.6 1.6-1.6 0.8 0 1.5 0.7 1.5 1.6z"/>
							</g>
						</g>
					</g>
					<g id="&lt;Group&gt;">
						<g id="&lt;Group&gt;">
							<g id="&lt;Group&gt;">
								<path id="&lt;Path&gt;" class="s1" d="m26.9 405.6c0.1-0.9 1-1.4 1.8-1.2 0.9 0.2 1.4 1 1.2 1.9-0.2 0.8-1 1.3-1.9 1.1-0.8-0.2-1.3-1-1.1-1.8z"/>
								<path id="&lt;Path&gt;" class="s1" d="m101.9 405.9c0.2-0.8 1.1-1.3 1.9-1.1 0.8 0.1 1.4 1 1.2 1.8-0.2 0.9-1.1 1.4-1.9 1.2-0.8-0.2-1.4-1-1.2-1.9z"/>
							</g>
							<g id="&lt;Group&gt;">
								<path id="&lt;Path&gt;" class="s1" d="m227.7 372.4c0.9 0 1.6 0.7 1.6 1.6 0 0.9-0.7 1.6-1.6 1.6-0.9 0-1.6-0.7-1.6-1.6 0-0.9 0.7-1.6 1.6-1.6z"/>
								<path id="&lt;Path&gt;" class="s1" d="m175.1 355.7c0.9 0 1.6 0.7 1.6 1.5 0 0.9-0.7 1.6-1.6 1.6-0.8 0-1.5-0.7-1.5-1.6 0-0.8 0.7-1.5 1.5-1.5z"/>
								<path id="&lt;Path&gt;" class="s1" d="m191.5 429c0.9 0 1.6 0.6 1.6 1.5 0 0.9-0.7 1.6-1.6 1.6-0.9 0-1.6-0.7-1.6-1.6 0-0.9 0.7-1.5 1.6-1.5z"/>
							</g>
							<g id="&lt;Group&gt;">
								<path id="&lt;Path&gt;" class="s1" d="m170.3 227.9c0.2-0.8 1-1.4 1.9-1.2 0.8 0.2 1.3 1 1.2 1.9-0.2 0.8-1.1 1.3-1.9 1.2-0.9-0.2-1.4-1.1-1.2-1.9z"/>
								<path id="&lt;Path&gt;" class="s1" d="m142.4 275.5c0.2-0.9 1-1.4 1.9-1.2 0.8 0.2 1.3 1 1.1 1.9-0.2 0.8-1 1.3-1.8 1.2-0.9-0.2-1.4-1.1-1.2-1.9z"/>
								<path id="&lt;Path&gt;" class="s1" d="m217.5 275.6c0.2-0.8 1-1.3 1.8-1.2 0.9 0.2 1.4 1.1 1.2 1.9-0.2 0.9-1 1.4-1.8 1.2-0.9-0.2-1.4-1-1.2-1.9z"/>
							</g>
							<g id="&lt;Group&gt;">
								<path id="&lt;Path&gt;" class="s1" d="m365.9 320.7c0.9 0 1.6 0.7 1.6 1.6 0 0.8-0.7 1.5-1.6 1.5-0.9 0-1.6-0.7-1.6-1.5 0-0.9 0.7-1.6 1.6-1.6z"/>
								<path id="&lt;Path&gt;" class="s1" d="m313.3 303.9c0.9 0 1.6 0.7 1.6 1.6 0 0.9-0.7 1.6-1.6 1.6-0.8 0-1.5-0.7-1.5-1.6 0-0.9 0.7-1.6 1.5-1.6z"/>
								<path id="&lt;Path&gt;" class="s1" d="m329.7 377.2c0.9 0 1.6 0.7 1.6 1.6 0 0.8-0.7 1.5-1.6 1.5-0.9 0-1.6-0.7-1.6-1.5 0-0.9 0.7-1.6 1.6-1.6z"/>
							</g>
						</g>
						<g id="&lt;Group&gt;">
							<g id="&lt;Group&gt;">
								<path id="&lt;Path&gt;" class="s1" d="m358 405.6c0.2-0.9 1-1.4 1.8-1.2 0.9 0.2 1.4 1 1.2 1.9-0.2 0.8-1 1.3-1.9 1.1-0.8-0.2-1.3-1-1.1-1.8z"/>
								<path id="&lt;Path&gt;" class="s1" d="m433 405.9c0.2-0.8 1.1-1.3 1.9-1.1 0.9 0.1 1.4 1 1.2 1.8-0.2 0.9-1 1.4-1.9 1.2-0.8-0.2-1.4-1-1.2-1.9z"/>
							</g>
							<g id="&lt;Group&gt;">
								<path id="&lt;Path&gt;" class="s1" d="m558.8 372.4c0.9 0 1.6 0.7 1.6 1.6 0 0.9-0.7 1.6-1.6 1.6-0.9 0-1.6-0.7-1.6-1.6 0-0.9 0.7-1.6 1.6-1.6z"/>
								<path id="&lt;Path&gt;" class="s1" d="m506.2 355.7c0.9 0 1.6 0.7 1.6 1.5 0 0.9-0.7 1.6-1.6 1.6-0.8 0-1.5-0.7-1.5-1.6 0-0.8 0.7-1.5 1.5-1.5z"/>
								<path id="&lt;Path&gt;" class="s1" d="m522.6 429c0.9 0 1.6 0.6 1.6 1.5 0 0.9-0.7 1.6-1.6 1.6-0.9 0-1.6-0.7-1.6-1.6 0-0.9 0.7-1.5 1.6-1.5z"/>
							</g>
							<g id="&lt;Group&gt;">
								<path id="&lt;Path&gt;" class="s1" d="m501.4 227.9c0.2-0.8 1-1.4 1.9-1.2 0.8 0.2 1.3 1 1.2 1.9-0.2 0.8-1.1 1.3-1.9 1.2-0.8-0.2-1.4-1.1-1.2-1.9z"/>
								<path id="&lt;Path&gt;" class="s1" d="m473.5 275.5c0.2-0.9 1-1.4 1.9-1.2 0.8 0.2 1.3 1 1.1 1.9-0.1 0.8-1 1.3-1.8 1.2-0.9-0.2-1.4-1.1-1.2-1.9z"/>
								<path id="&lt;Path&gt;" class="s1" d="m548.6 275.6c0.2-0.8 1-1.3 1.8-1.2 0.9 0.2 1.4 1.1 1.2 1.9-0.2 0.9-1 1.4-1.8 1.2-0.9-0.2-1.4-1-1.2-1.9z"/>
							</g>
							<g id="&lt;Group&gt;">
								<path id="&lt;Path&gt;" class="s1" d="m697 320.7c0.9 0 1.6 0.7 1.6 1.6 0 0.8-0.7 1.5-1.6 1.5-0.9 0-1.6-0.7-1.6-1.5 0-0.9 0.7-1.6 1.6-1.6z"/>
								<path id="&lt;Path&gt;" class="s1" d="m644.4 303.9c0.9 0 1.6 0.7 1.6 1.6 0 0.9-0.7 1.6-1.6 1.6-0.8 0-1.5-0.7-1.5-1.6 0-0.9 0.7-1.6 1.5-1.6z"/>
								<path id="&lt;Path&gt;" class="s1" d="m660.8 377.2c0.9 0 1.6 0.7 1.6 1.6 0 0.8-0.7 1.5-1.6 1.5-0.9 0-1.6-0.7-1.6-1.5 0-0.9 0.7-1.6 1.6-1.6z"/>
							</g>
						</g>
						<g id="&lt;Group&gt;">
							<g id="&lt;Group&gt;">
								<path id="&lt;Path&gt;" class="s1" d="m689.1 405.6c0.2-0.9 1-1.4 1.8-1.2 0.9 0.2 1.4 1 1.2 1.9-0.2 0.8-1 1.3-1.9 1.1-0.8-0.2-1.3-1-1.1-1.8z"/>
								<path id="&lt;Path&gt;" class="s1" d="m764.1 405.9c0.2-0.8 1.1-1.3 1.9-1.1 0.9 0.1 1.4 1 1.2 1.8-0.2 0.9-1 1.4-1.9 1.2-0.8-0.2-1.3-1-1.2-1.9z"/>
							</g>
							<g id="&lt;Group&gt;">
								<path id="&lt;Path&gt;" class="s1" d="m889.9 372.4c0.9 0 1.6 0.7 1.6 1.6 0 0.9-0.7 1.6-1.6 1.6-0.9 0-1.6-0.7-1.6-1.6 0-0.9 0.7-1.6 1.6-1.6z"/>
								<path id="&lt;Path&gt;" class="s1" d="m837.3 355.7c0.9 0 1.6 0.7 1.6 1.5 0 0.9-0.7 1.6-1.6 1.6-0.8 0-1.5-0.7-1.5-1.6 0-0.8 0.7-1.5 1.5-1.5z"/>
								<path id="&lt;Path&gt;" class="s1" d="m853.7 429c0.9 0 1.6 0.6 1.6 1.5 0 0.9-0.7 1.6-1.6 1.6-0.9 0-1.6-0.7-1.6-1.6 0-0.9 0.7-1.5 1.6-1.5z"/>
							</g>
							<g id="&lt;Group&gt;">
								<path id="&lt;Path&gt;" class="s1" d="m832.5 227.9c0.2-0.8 1-1.4 1.9-1.2 0.8 0.2 1.4 1 1.2 1.9-0.2 0.8-1.1 1.3-1.9 1.2-0.8-0.2-1.4-1.1-1.2-1.9z"/>
								<path id="&lt;Path&gt;" class="s1" d="m804.6 275.5c0.2-0.9 1-1.4 1.9-1.2 0.8 0.2 1.3 1 1.2 1.9-0.2 0.8-1.1 1.3-1.9 1.2-0.9-0.2-1.4-1.1-1.2-1.9z"/>
								<path id="&lt;Path&gt;" class="s1" d="m879.7 275.6c0.2-0.8 1-1.3 1.9-1.2 0.8 0.2 1.3 1.1 1.1 1.9-0.2 0.9-1 1.4-1.8 1.2-0.9-0.2-1.4-1-1.2-1.9z"/>
							</g>
							<g id="&lt;Group&gt;">
								<path id="&lt;Path&gt;" class="s1" d="m1028.1 320.7c0.9 0 1.6 0.7 1.6 1.6 0 0.8-0.7 1.5-1.6 1.5-0.8 0-1.5-0.7-1.5-1.5 0-0.9 0.7-1.6 1.5-1.6z"/>
								<path id="&lt;Path&gt;" class="s1" d="m975.6 303.9c0.8 0 1.5 0.7 1.5 1.6 0 0.9-0.7 1.6-1.5 1.6-0.9 0-1.6-0.7-1.6-1.6 0-0.9 0.7-1.6 1.6-1.6z"/>
								<path id="&lt;Path&gt;" class="s1" d="m991.9 377.2c0.9 0 1.6 0.7 1.6 1.6 0 0.8-0.7 1.5-1.6 1.5-0.9 0-1.6-0.7-1.6-1.5 0-0.9 0.7-1.6 1.6-1.6z"/>
							</g>
						</g>
					</g>
					<g id="&lt;Group&gt;">
						<g id="&lt;Group&gt;">
							<g id="&lt;Group&gt;">
								<path id="&lt;Path&gt;" class="s1" d="m1028.5 633.7c-0.9 0.1-1.7-0.4-1.9-1.2-0.2-0.9 0.3-1.7 1.2-1.9 0.8-0.2 1.6 0.3 1.8 1.2 0.2 0.8-0.3 1.7-1.1 1.9z"/>
								<path id="&lt;Path&gt;" class="s1" d="m953.4 634c-0.9 0.2-1.7-0.3-1.9-1.1-0.2-0.9 0.3-1.7 1.2-1.9 0.8-0.2 1.7 0.3 1.9 1.2 0.1 0.8-0.4 1.6-1.2 1.8z"/>
							</g>
							<g id="&lt;Group&gt;">
								<path id="&lt;Path&gt;" class="s1" d="m830.4 600.2c0 0.9-0.7 1.6-1.6 1.6-0.9 0-1.6-0.7-1.6-1.6 0-0.8 0.7-1.5 1.6-1.5 0.9 0 1.6 0.7 1.6 1.5z"/>
								<path id="&lt;Path&gt;" class="s1" d="m882.9 583.5c0 0.8-0.7 1.5-1.5 1.5-0.9 0-1.6-0.7-1.6-1.5 0-0.9 0.7-1.6 1.6-1.6 0.8 0 1.5 0.7 1.5 1.6z"/>
								<path id="&lt;Path&gt;" class="s1" d="m866.6 656.7c0 0.9-0.7 1.6-1.6 1.6-0.9 0-1.6-0.7-1.6-1.6 0-0.8 0.7-1.5 1.6-1.5 0.9 0 1.6 0.7 1.6 1.5z"/>
							</g>
							<g id="&lt;Group&gt;">
								<path id="&lt;Path&gt;" class="s1" d="m885 456c-0.8 0.2-1.7-0.4-1.9-1.2-0.2-0.8 0.4-1.7 1.2-1.9 0.9-0.2 1.7 0.4 1.9 1.2 0.2 0.9-0.4 1.7-1.2 1.9z"/>
								<path id="&lt;Path&gt;" class="s1" d="m912.9 503.6c-0.8 0.2-1.7-0.4-1.8-1.2-0.2-0.8 0.3-1.7 1.1-1.9 0.9-0.2 1.7 0.4 1.9 1.2 0.2 0.9-0.3 1.7-1.2 1.9z"/>
								<path id="&lt;Path&gt;" class="s1" d="m837.8 503.7c-0.8 0.2-1.6-0.3-1.8-1.2-0.2-0.8 0.3-1.6 1.1-1.8 0.9-0.2 1.7 0.3 1.9 1.2 0.2 0.8-0.3 1.6-1.2 1.8z"/>
							</g>
							<g id="&lt;Group&gt;">
								<path id="&lt;Path&gt;" class="s1" d="m692.1 548.5c0 0.9-0.6 1.5-1.5 1.5-0.9 0-1.6-0.6-1.6-1.5 0-0.9 0.7-1.6 1.6-1.6 0.9 0 1.5 0.7 1.5 1.6z"/>
								<path id="&lt;Path&gt;" class="s1" d="m744.7 531.7c0 0.9-0.7 1.6-1.5 1.6-0.9 0-1.6-0.7-1.6-1.6 0-0.9 0.7-1.5 1.6-1.5 0.8 0 1.5 0.6 1.5 1.5z"/>
								<path id="&lt;Path&gt;" class="s1" d="m728.4 605c0 0.9-0.7 1.6-1.6 1.6-0.9 0-1.6-0.7-1.6-1.6 0-0.9 0.7-1.6 1.6-1.6 0.9 0 1.6 0.7 1.6 1.6z"/>
							</g>
						</g>
						<g id="&lt;Group&gt;">
							<g id="&lt;Group&gt;">
								<path id="&lt;Path&gt;" class="s1" d="m697.4 633.7c-0.9 0.1-1.7-0.4-1.9-1.2-0.2-0.9 0.3-1.7 1.2-1.9 0.8-0.2 1.6 0.3 1.8 1.2 0.2 0.8-0.3 1.7-1.1 1.9z"/>
								<path id="&lt;Path&gt;" class="s1" d="m622.3 634c-0.9 0.2-1.7-0.3-1.9-1.1-0.2-0.9 0.3-1.7 1.2-1.9 0.8-0.2 1.7 0.3 1.8 1.2 0.2 0.8-0.3 1.6-1.1 1.8z"/>
							</g>
							<g id="&lt;Group&gt;">
								<path id="&lt;Path&gt;" class="s1" d="m499.3 600.2c-0.1 0.9-0.7 1.6-1.6 1.6-0.9 0-1.6-0.7-1.6-1.6 0-0.8 0.7-1.5 1.6-1.5 0.9 0 1.5 0.7 1.5 1.5z"/>
								<path id="&lt;Path&gt;" class="s1" d="m551.8 583.5c0 0.8-0.7 1.5-1.5 1.5-0.9 0-1.6-0.7-1.6-1.5 0-0.9 0.7-1.6 1.6-1.6 0.8 0 1.5 0.7 1.5 1.6z"/>
								<path id="&lt;Path&gt;" class="s1" d="m535.5 656.7c0 0.9-0.7 1.6-1.6 1.6-0.9 0-1.6-0.7-1.6-1.6 0-0.8 0.7-1.5 1.6-1.5 0.9 0 1.6 0.7 1.6 1.5z"/>
							</g>
							<g id="&lt;Group&gt;">
								<path id="&lt;Path&gt;" class="s1" d="m553.9 456c-0.8 0.2-1.7-0.4-1.9-1.2-0.2-0.8 0.4-1.7 1.2-1.9 0.9-0.2 1.7 0.4 1.9 1.2 0.2 0.9-0.4 1.7-1.2 1.9z"/>
								<path id="&lt;Path&gt;" class="s1" d="m581.8 503.6c-0.8 0.2-1.7-0.4-1.9-1.2-0.1-0.8 0.4-1.7 1.2-1.9 0.9-0.2 1.7 0.4 1.9 1.2 0.2 0.9-0.3 1.7-1.2 1.9z"/>
								<path id="&lt;Path&gt;" class="s1" d="m506.7 503.7c-0.8 0.2-1.6-0.3-1.8-1.2-0.2-0.8 0.3-1.6 1.1-1.8 0.9-0.2 1.7 0.3 1.9 1.2 0.2 0.8-0.3 1.6-1.2 1.8z"/>
							</g>
							<g id="&lt;Group&gt;">
								<path id="&lt;Path&gt;" class="s1" d="m361 548.5c0 0.9-0.7 1.5-1.5 1.5-0.9 0-1.6-0.6-1.6-1.5 0-0.9 0.7-1.6 1.6-1.6 0.8 0 1.5 0.7 1.5 1.6z"/>
								<path id="&lt;Path&gt;" class="s1" d="m413.6 531.7c0 0.9-0.7 1.6-1.6 1.6-0.8 0-1.5-0.7-1.5-1.6 0-0.9 0.7-1.5 1.5-1.5 0.9 0 1.6 0.6 1.6 1.5z"/>
								<path id="&lt;Path&gt;" class="s1" d="m397.3 605c-0.1 0.9-0.7 1.6-1.6 1.6-0.9 0-1.6-0.7-1.6-1.6 0-0.9 0.7-1.6 1.6-1.6 0.9 0 1.5 0.7 1.5 1.6z"/>
							</g>
						</g>
						<g id="&lt;Group&gt;">
							<g id="&lt;Group&gt;">
								<path id="&lt;Path&gt;" class="s1" d="m366.3 633.7c-0.9 0.1-1.7-0.4-1.9-1.2-0.2-0.9 0.3-1.7 1.2-1.9 0.8-0.2 1.6 0.3 1.8 1.2 0.2 0.8-0.3 1.7-1.2 1.9z"/>
								<path id="&lt;Path&gt;" class="s1" d="m291.2 634c-0.9 0.2-1.7-0.3-1.9-1.1-0.2-0.9 0.3-1.7 1.2-1.9 0.8-0.2 1.7 0.3 1.8 1.2 0.2 0.8-0.3 1.6-1.1 1.8z"/>
							</g>
							<g id="&lt;Group&gt;">
								<path id="&lt;Path&gt;" class="s1" d="m168.1 600.2c0 0.9-0.7 1.6-1.5 1.6-0.9 0-1.6-0.7-1.6-1.6 0-0.8 0.7-1.5 1.6-1.5 0.8 0 1.5 0.7 1.5 1.5z"/>
								<path id="&lt;Path&gt;" class="s1" d="m220.7 583.5c0 0.8-0.7 1.5-1.6 1.5-0.8 0-1.5-0.7-1.5-1.5 0-0.9 0.7-1.6 1.5-1.6 0.9 0 1.6 0.7 1.6 1.6z"/>
								<path id="&lt;Path&gt;" class="s1" d="m204.4 656.7c0 0.9-0.7 1.6-1.6 1.6-0.9 0-1.6-0.7-1.6-1.6 0-0.8 0.7-1.5 1.6-1.5 0.9 0 1.6 0.7 1.6 1.5z"/>
							</g>
							<g id="&lt;Group&gt;">
								<path id="&lt;Path&gt;" class="s1" d="m222.8 456c-0.8 0.2-1.7-0.4-1.9-1.2-0.2-0.8 0.4-1.7 1.2-1.9 0.8-0.2 1.7 0.4 1.9 1.2 0.2 0.9-0.4 1.7-1.2 1.9z"/>
								<path id="&lt;Path&gt;" class="s1" d="m250.7 503.6c-0.8 0.2-1.7-0.4-1.9-1.2-0.2-0.8 0.4-1.7 1.2-1.9 0.9-0.2 1.7 0.4 1.9 1.2 0.2 0.9-0.4 1.7-1.2 1.9z"/>
								<path id="&lt;Path&gt;" class="s1" d="m175.6 503.7c-0.8 0.2-1.7-0.3-1.8-1.2-0.2-0.8 0.3-1.6 1.1-1.8 0.9-0.2 1.7 0.3 1.9 1.2 0.2 0.8-0.3 1.6-1.2 1.8z"/>
							</g>
							<g id="&lt;Group&gt;">
								<path id="&lt;Path&gt;" class="s1" d="m29.9 548.5c0 0.9-0.7 1.5-1.5 1.5-0.9 0-1.6-0.6-1.6-1.5 0-0.9 0.7-1.6 1.6-1.6 0.8 0 1.5 0.7 1.5 1.6z"/>
								<path id="&lt;Path&gt;" class="s1" d="m82.5 531.7c0 0.9-0.7 1.6-1.6 1.6-0.8 0-1.5-0.7-1.5-1.6 0-0.9 0.7-1.5 1.5-1.5 0.9 0 1.6 0.6 1.6 1.5z"/>
								<path id="&lt;Path&gt;" class="s1" d="m66.1 605c0 0.9-0.7 1.6-1.5 1.6-0.9 0-1.6-0.7-1.6-1.6 0-0.9 0.7-1.6 1.6-1.6 0.8 0 1.5 0.7 1.5 1.6z"/>
							</g>
						</g>
					</g>
					<g id="&lt;Group&gt;">
						<g id="&lt;Group&gt;">
							<path id="&lt;Path&gt;" class="s2" d="m794.4 137c-4.3 2.8-6.2 0.4-6.2 0.4-2.7-4 0.9-6.4 0.9-6.4l98.7-53.4c0 0-89.1 56.6-93.4 59.4z"/>
							<path id="&lt;Compound Path&gt;" class="s3" d="m801.9 126.9c-0.2 0.2-0.5 0.4-0.7 0.5q-0.5 0.3-0.9 0.6-0.9 0.5-1.7 1.1-0.8 0.6-1.6 1.3 0.3-0.2 0.6-0.4 0.7-0.4 1.4-0.7c0.3-0.2 0.7-0.5 1.1-0.5 0.1 0 0.1 0.1 0.1 0.2-0.3 0.5-0.8 0.8-1.2 1.2q-0.5 0.4-0.9 0.8c0.3-0.2 0.7-0.3 1-0.3 0.1-0.1 0.2 0 0.2 0.1-0.3 0.7-0.9 1.3-1.3 1.9-0.6 0.6-1.1 1.3-1.7 1.9q-0.9 0.9-1.9 1.7-0.4 0.2-0.8 0.5-0.7 0.5-1.6 0.8c-0.6 0.2-1.3 0.3-2 0.1-1.1-0.4-1.8-1.5-2-2.7-0.2-1.1 0.2-2.1 0.9-3q0.6-0.6 1.3-1c0.7-0.6 1.5-1 2.3-1.3 1.4-0.7 3-1.2 4.5-1.7 0.2-0.1 0.3 0.1 0.1 0.2q0 0-0.1 0 0 0.1 0 0.1c-0.6 0.3-1.4 0.7-2.1 1.2q0.6-0.3 1.2-0.6 0.9-0.4 1.8-0.8c1.3-0.5 2.6-0.9 3.9-1.4 0.1 0 0.3 0.1 0.1 0.2z"/>
						</g>
						<path id="&lt;Path&gt;" class="s4" d="m820.7 115.3c0.3-0.1-6.2 4.7-6.2 4.7l12.8-7.4-14 9.7 10.9-6.3c0 0-24.8 18.5-30.6 20.8-5.8 2.3-7.1-2.2-4.7-4.8 2.5-2.5 25.7-13.6 25.7-13.6 0 0 5.8-3 6.1-3.1z"/>
					</g>
					<g id="&lt;Group&gt;">
						<g id="&lt;Group&gt;">
							<path id="&lt;Path&gt;" class="s5" d="m677.1 455.6c-4.3 2.7-6.2 0.3-6.2 0.3-2.7-3.9 0.9-6.3 0.9-6.3l98.7-53.4c0 0-89.1 56.6-93.4 59.4z"/>
							<path id="&lt;Compound Path&gt;" class="s6" d="m684.6 445.5q-0.3 0.3-0.7 0.5-0.5 0.2-0.9 0.5-0.9 0.6-1.7 1.2-0.8 0.6-1.6 1.2 0.3-0.2 0.6-0.4 0.7-0.3 1.4-0.7c0.4-0.1 0.7-0.4 1.1-0.4 0.1 0 0.2 0.1 0.1 0.2-0.3 0.4-0.8 0.8-1.2 1.2q-0.4 0.4-0.9 0.8c0.3-0.2 0.7-0.4 1.1-0.4 0 0 0.1 0.1 0.1 0.2-0.3 0.7-0.8 1.3-1.3 1.8-0.6 0.7-1.1 1.3-1.7 2q-0.9 0.9-1.9 1.6-0.4 0.3-0.8 0.6-0.7 0.4-1.6 0.7c-0.6 0.3-1.3 0.4-2 0.1-1.1-0.3-1.8-1.5-2-2.6-0.2-1.1 0.2-2.2 0.9-3q0.6-0.6 1.3-1.1c0.7-0.5 1.5-0.9 2.3-1.3 1.4-0.6 3-1.1 4.5-1.6 0.2-0.1 0.3 0.1 0.1 0.2q0 0 0 0 0 0 0 0c-0.7 0.4-1.5 0.7-2.1 1.2q0.5-0.3 1.1-0.5 0.9-0.4 1.8-0.8c1.3-0.6 2.6-1 3.9-1.4 0.1-0.1 0.3 0.1 0.1 0.2z"/>
						</g>
						<path id="&lt;Path&gt;" class="s7" d="m703.4 433.9c0.3-0.1-6.2 4.7-6.2 4.7l12.8-7.4-14 9.7 10.9-6.4c0 0-24.8 18.5-30.6 20.9-5.8 2.3-7.1-2.3-4.7-4.8 2.5-2.5 25.7-13.6 25.7-13.6 0 0 5.9-3.1 6.1-3.1z"/>
					</g>
					<g id="&lt;Group&gt;">
						<g id="&lt;Group&gt;">
							<path id="&lt;Path&gt;" class="s8" d="m433.8 89c-2.4 1.5-3.4 0.2-3.4 0.2-1.5-2.2 0.5-3.5 0.5-3.5l54.1-29.3c0 0-48.8 31.1-51.2 32.6z"/>
							<path id="&lt;Compound Path&gt;" class="s9" d="m437.9 83.5q-0.1 0.1-0.4 0.2-0.2 0.2-0.4 0.3-0.5 0.4-1 0.7-0.4 0.3-0.9 0.7 0.2-0.2 0.4-0.3 0.4-0.1 0.7-0.3c0.2-0.1 0.4-0.3 0.6-0.3 0.1 0 0.1 0.1 0.1 0.1-0.2 0.3-0.4 0.5-0.7 0.7q-0.2 0.2-0.5 0.4 0.3-0.2 0.6-0.2c0.1 0 0.1 0.1 0.1 0.1-0.1 0.4-0.5 0.7-0.7 1-0.3 0.4-0.6 0.7-1 1.1q-0.4 0.5-1 0.9-0.2 0.2-0.4 0.3-0.4 0.3-0.9 0.4c-0.3 0.1-0.7 0.2-1.1 0.1-0.6-0.2-1-0.9-1.1-1.5-0.1-0.6 0.1-1.2 0.5-1.6q0.3-0.4 0.7-0.6c0.4-0.3 0.8-0.5 1.3-0.7 0.8-0.4 1.6-0.7 2.4-0.9 0.1-0.1 0.2 0 0.1 0.1q0 0 0 0c-0.4 0.2-0.8 0.4-1.2 0.7q0.3-0.2 0.6-0.3 0.5-0.3 1.1-0.5c0.6-0.3 1.3-0.5 2-0.7 0.1-0.1 0.2 0 0.1 0.1z"/>
						</g>
						<path id="&lt;Path&gt;" class="s10" d="m448.2 77.1c0.2 0-3.4 2.6-3.4 2.6l7-4.1-7.6 5.3 5.9-3.4c0 0-13.5 10.1-16.7 11.4-3.2 1.3-3.9-1.2-2.6-2.6 1.4-1.4 14.1-7.5 14.1-7.5 0 0 3.2-1.7 3.3-1.7z"/>
					</g>
				</g>
			</g>
		</g>
	</g>
</svg>