<svg xmlns="http://www.w3.org/2000/svg" version="1.1" xmlns:xlink="http://www.w3.org/1999/xlink" xmlns:svgjs="http://svgjs.com/svgjs" width="2560" height="1600" preserveAspectRatio="none" viewBox="0 0 2560 1600">
    <g mask="url(&quot;#SvgjsMask1105&quot;)" fill="none">
        <rect width="2560" height="1600" x="0" y="0" fill="#faa500"></rect>
        <path d="M501.02 69.27 a388.01 388.01 0 1 0 776.02 0 a388.01 388.01 0 1 0 -776.02 0z" fill="rgba(66, 133, 244, 0.76 )" class="triangle-float1"></path>
        <path d="M2069.68 1252.16 a356.65 356.65 0 1 0 713.3 0 a356.65 356.65 0 1 0 -713.3 0z" fill="rgba(251, 188, 4, 0.76)" class="triangle-float2"></path>
        <path d="M1956.3 661.42 a431.04 431.04 0 1 0 862.08 0 a431.04 431.04 0 1 0 -862.08 0z" fill="rgba(52, 168, 83, 0.76)" class="triangle-float2"></path>
        <path d="M310.5 1280.45 a307.57 307.57 0 1 0 615.14 0 a307.57 307.57 0 1 0 -615.14 0z" fill="rgba(234, 67, 53, 0.76)" class="triangle-float3"></path>
    </g>
    <defs>
        <mask id="SvgjsMask1105">
            <rect width="2560" height="1600" fill="rgba(0,0,0, 1)"></rect>
        </mask>
        <style>
            @keyframes float1 {
                0%{transform: translate(0, 0)}
                50%{transform: translate(-10px, 0)}
                100%{transform: translate(0, 0)}
            }

            .triangle-float1 {
                animation: float1 5s infinite;
            }

            @keyframes float2 {
                0%{transform: translate(0, 0)}
                50%{transform: translate(-5px, -5px)}
                100%{transform: translate(0, 0)}
            }

            .triangle-float2 {
                animation: float2 4s infinite;
            }

            @keyframes float3 {
                0%{transform: translate(0, 0)}
                50%{transform: translate(0, -10px)}
                100%{transform: translate(0, 0)}
            }

            .triangle-float3 {
                animation: float3 6s infinite;
            }
        </style>
    </defs>
</svg>