<svg version="1.2" xmlns="http://www.w3.org/2000/svg" viewBox="0 0 1000 400" width="4000" height="1600">
	<title>62Z_2107</title>
	<defs>
		<linearGradient id="g1" x1="122.7" y1="200.5" x2="122.7" y2="497.7" gradientUnits="userSpaceOnUse">
			<stop offset="0" stop-color="#92c2ff"/>
			<stop offset="1" stop-color="#4f7aff"/>
		</linearGradient>
		<linearGradient id="g2" x1="923.7" y1="102.5" x2="923.7" y2="399.7" gradientUnits="userSpaceOnUse">
			<stop offset="0" stop-color="#92c2ff"/>
			<stop offset="1" stop-color="#4f7aff"/>
		</linearGradient>
		<linearGradient id="g3" x1="577" y1="199.4" x2="577" y2="462" gradientUnits="userSpaceOnUse">
			<stop offset="0" stop-color="#92c2ff"/>
			<stop offset="1" stop-color="#516dba"/>
		</linearGradient>
		<linearGradient id="g4" x1="688.6" y1="361.9" x2="693.2" y2="483.8" gradientUnits="userSpaceOnUse">
			<stop offset="0" stop-color="#17284f"/>
			<stop offset="1" stop-color="#190f66"/>
		</linearGradient>
	</defs>
	<style>
		.s0 { fill: url(#g1) } 
		.s1 { mix-blend-mode: multiply;fill: #5d5e8a } 
		.s2 { mix-blend-mode: soft-light;fill: #e3eeff } 
		.s3 { mix-blend-mode: multiply;fill: #8674a5 } 
		.s4 { fill: url(#g2) } 
		.s5 { fill: url(#g3) } 
		.s6 { mix-blend-mode: multiply;fill: #947abf } 
		.s7 { mix-blend-mode: soft-light;fill: #f7faff } 
		.s8 { opacity: .7;fill: #9eabff } 
		.s9 { opacity: .5;fill: #9eabff } 
		.s10 { fill: url(#g4) } 
		.s11 { mix-blend-mode: multiply;fill: #8167b5 } 
		.s12 { mix-blend-mode: soft-light;fill: #eee3ff } 
	</style>
	<g id="&lt;Group&gt;">
		<path id="&lt;Path&gt;" class="s0" d="m-254.4 497.7l231.8-184.5 5.5-2.8 98.4-109.9h4.6l6.6 4 25 33.4 69.9 82.1 54.8 25.4 4.3 0.7 108.3 151.6z"/>
		<path id="&lt;Compound Path&gt;" fill-rule="evenodd" class="s1" d="m-230.7 478.8l151.2-46.8 195.5-89.1 31.4 41.7-31.9-46.2-174.6 79-139.9 36.2 18.7-14.9 39.2-12.3 95.9-45.5 6.2-15.8 9.4-23.4 21.2-10.1-19.7 6.4 11-27.6 98.4-109.9h4.6l6.6 4-9.4-0.5-28.4 41.9 31.3-36.4 6.5-5 10.9 15.6 37.9 54-41.8-51.1-5.4 2.2h-0.2l0.6 0.6 87.2 100.2 5.7-6 59.1 26.1 108.3 151.6-108.3-145.5-3.9 2.3 51.7 96.2v-16.3l36.2 63.3h-25.7l-78.5-92.1-105.8 11.8-26-36.5 23 40.2 104.4 10.3 45.3 66.3h-14.3l-12.3-17.5 5.9 17.5h-75.9l-22.8-23.5 15.9 23.5h-109l3.6-4.4 4-4.8-79.5-56.5 8.8 10.4 66.7 50.9-60.6-39.7-144.2 44.1h-107.9zm99.9-79.6l94.2-64.9-3.7 20.2-34.4 20.7 33.3-15-3.8 20.6-126.8 51.2zm108.2-86.1l-6.8 10.4-101.4 75.7zm-66.5 95.7l26.7-6.8 8.7-6.9zm90.7-30.5l110.9-64.3 10.2 9.5-10.6-13.1-72.8 38.4-37.7 19.8zm80.2-61l-15.1 2.7-15.1 15.9-12.9 4.8-23.7 17.7 36.6-22.5zm-31.7-42.5l14.3-8.4 34.6-31.4zm54.7-29l-11.8 8.4-82.2 58h-0.1l-1.3 0.9 88.2-53.3 7.5 2.5 27.1 33.8zm126.8 128.1l39.4 43.3-31.2-52.2-21.8 1.3zm-104.1 34.8l16.8-2.7-13.4-1.5-13.4-9.9zm125.4 77.1l-30.2-46.6-11.8 3zm-251.2-23.2l4.2 2.7 48.8 32.3h-185.5zm299 34.9h-6.5l-55.6-67.8zm-503.8-40.8l123.6-30.4-134 38.7z"/>
		<path id="&lt;Compound Path&gt;" fill-rule="evenodd" class="s2" d="m5.9 465.4l22.3 32.3h-282.6l23.7-18.9 17.2-13.7 10.4-8.3 4.1-3.2 18.7-14.9 8.3-6.6 41.2-32.8 108.2-86.2 5.5-2.7 98.4-109.9 12.6 24.7 5.2 9.9 5.8 10.8-11.8 8.3 4.5 5.6 10.1 12.5 4.5 38.1 0.4 3.6 2.9 24.4 0.5 4.5-100.9 56.4 7.5 6.9-39.8 25.8 14.9 21.6zm-125.2-61.8l23.6-6 36.6-16.8z"/>
		<path id="&lt;Path&gt;" class="s3" d="m246.5 346.1l-3.9 8.4-2.8 10.6-21.8 1.3 13.6 7.6-9.7 57.4-84.9 25.4 10.8 17.4 5.2 23.5h-98.3l92.7-113.1 15-38.5 25-26.1z"/>
		<path id="&lt;Path&gt;" class="s3" d="m-199.1 453.6h0.1l-4.1 3.2z"/>
		<path id="&lt;Path&gt;" class="s3" d="m59 432.1l7.1 24.7-37.9-43.7z"/>
		<path id="&lt;Path&gt;" class="s3" d="m226.3 405.6l-75.7 0.6-19.7-1.5 16.5-20.1 84.2-10.6z"/>
		<path id="&lt;Path&gt;" class="s3" d="m218 366.4l-58.8-11.9 3.2-8.4 25-26.1 59.1 26.1-6.7 19z"/>
		<path id="&lt;Path&gt;" class="s3" d="m76.4 375.7l-26.2 8.9 44-24.4z"/>
		<path id="&lt;Path&gt;" class="s3" d="m-119.3 390.1l96.7-76.9-6.8 10.3z"/>
		<path id="&lt;Path&gt;" class="s3" d="m116 342.9l-100.9 56.4-91.8 31.4z"/>
	</g>
	<g id="&lt;Group&gt; copy">
		<path id="&lt;Path&gt;" class="s4" d="m546.6 399.7l231.8-184.5 5.5-2.8 98.4-109.9h4.6l6.6 4 25 33.4 69.9 82.1 54.8 25.4 4.3 0.7 108.3 151.6z"/>
		<path id="&lt;Compound Path&gt;" fill-rule="evenodd" class="s1" d="m570.3 380.8l151.2-46.8 195.5-89.1 31.4 41.7-31.9-46.2-174.6 79-139.9 36.2 18.7-14.9 39.2-12.3 95.9-45.5 6.2-15.8 9.4-23.4 21.2-10.1-19.7 6.4 11-27.6 98.4-109.9h4.6l6.6 4-9.4-0.5-28.4 41.9 31.3-36.4 6.5-5 10.9 15.6 37.9 54-41.8-51.1-5.4 2.2h-0.2l0.6 0.6 87.2 100.2 5.7-6 59.1 26.1 108.3 151.6-108.3-145.5-3.9 2.3 51.7 96.2v-16.3l36.2 63.3h-25.7l-78.5-92.1-105.8 11.8-26-36.5 23 40.2 104.4 10.3 45.3 66.3h-14.3l-12.3-17.5 5.9 17.5h-75.9l-22.8-23.5 15.9 23.5h-109l3.6-4.4 4-4.8-79.5-56.5 8.8 10.4 66.7 50.9-60.6-39.7-144.2 44.1h-107.9zm99.9-79.6l94.2-64.9-3.7 20.2-34.4 20.7 33.3-15-3.8 20.6-126.8 51.2zm108.2-86.1l-6.8 10.4-101.4 75.7zm-66.5 95.7l26.7-6.8 8.7-6.9zm90.7-30.5l110.9-64.3 10.2 9.5-10.6-13.1-72.8 38.4-37.7 19.8zm80.2-61l-15.1 2.7-15.1 15.9-12.9 4.8-23.7 17.7 36.6-22.5zm-31.7-42.5l14.3-8.4 34.6-31.4zm54.7-29l-11.8 8.4-82.2 58h-0.1l-1.3 0.9 88.2-53.3 7.5 2.5 27.1 33.8zm126.8 128.1l39.4 43.3-31.2-52.2-21.8 1.3zm-104.1 34.8l16.8-2.7-13.4-1.5-13.4-9.9zm125.4 77.1l-30.2-46.6-11.8 3zm-251.2-23.2l4.2 2.7 48.8 32.3h-185.5zm299 34.9h-6.5l-55.6-67.8zm-503.8-40.8l123.6-30.4-134 38.7z"/>
		<path id="&lt;Compound Path&gt;" fill-rule="evenodd" class="s2" d="m806.9 367.4l22.3 32.3h-282.6l23.7-18.9 17.2-13.7 10.4-8.3 4.1-3.2 18.7-14.9 8.3-6.6 41.2-32.8 108.2-86.2 5.5-2.7 98.4-109.9 12.6 24.7 5.2 9.9 5.8 10.8-11.8 8.3 4.5 5.6 10.1 12.5 4.5 38.1 0.4 3.6 2.9 24.4 0.5 4.5-100.9 56.4 7.5 6.9-39.8 25.8 14.9 21.6zm-125.2-61.8l23.6-6 36.6-16.8z"/>
		<path id="&lt;Path&gt;" class="s3" d="m1047.5 248.1l-3.9 8.4-2.8 10.6-21.8 1.3 13.6 7.6-9.7 57.4-84.9 25.4 10.8 17.4 5.2 23.5h-98.3l92.7-113.1 15-38.5 25-26.1z"/>
		<path id="&lt;Path&gt;" class="s3" d="m601.9 355.6h0.1l-4.1 3.2z"/>
		<path id="&lt;Path&gt;" class="s3" d="m860 334.1l7.1 24.7-37.9-43.7z"/>
		<path id="&lt;Path&gt;" class="s3" d="m1027.3 307.6l-75.7 0.6-19.7-1.5 16.5-20.1 84.2-10.6z"/>
		<path id="&lt;Path&gt;" class="s3" d="m1019 268.4l-58.8-11.9 3.2-8.4 25-26.1 59.1 26.1-6.7 19z"/>
		<path id="&lt;Path&gt;" class="s3" d="m877.4 277.7l-26.2 8.9 44-24.4z"/>
		<path id="&lt;Path&gt;" class="s3" d="m681.7 292.1l96.7-76.9-6.8 10.3z"/>
		<path id="&lt;Path&gt;" class="s3" d="m917 244.9l-100.9 56.4-91.8 31.4z"/>
	</g>
	<g id="layer1 copy 2">
		<g id="&lt;Group&gt;">
			<g id="&lt;Clip Group&gt;">
				<g id="&lt;Group&gt;">
					<path id="&lt;Path&gt;" class="s5" d="m246 462l189.2-230 23.9-31.6 6.6-1 110.8 104.1 0.8 1.3 3.1-0.6 198 157.8z"/>
					<path id="&lt;Compound Path&gt;" fill-rule="evenodd" class="s6" d="m606.8 462h-360.8l178.8-217.2-22.8 36.8 57.1-81.3 6.6-0.9 111.6 105.4-29.6-20.5-19.8-15.4 151.1 193.1h-57.8l-126.4-193.1 3.4 15.4 46.2 77.7-6.2-21.9zm-169.4-219.8l12.3-10.6 7.2 13 0.4-26.1zm22.2 7.2l-18.3 25.4 21.2-20.2zm21.8 32.2l-13.7-19.7-65.6 90.3 68.7-83.4 68.7 101.6z"/>
					<path id="&lt;Path&gt;" class="s7" d="m465.7 199.4l-16 32.2 2.5 5 47.6 82.8-18.5-6-22.5 31.8-97.2 116.8h-115.6l213.1-261.6z"/>
					<path id="&lt;Path&gt;" class="s3" d="m494.8 268.9l-19.9-50.3 29.6 35.4 23.4 68.8z"/>
				</g>
				<g id="&lt;Group&gt;">
					<path id="&lt;Path&gt;" class="s8" d="m947.3 320.5c0 0-148 9-269.6 10.2-121.6 1.2-355.4-7.2-355.4-7.2 0 0 134.8-4.1 232.5 4.8 79.2 7.1 160.3-12.9 47.6-14.9-112.7-2-524.3 15.7-524.3 15.7 0 0 154.7-8.6 281.3-15 138.5-6.9 586.9-34 586.9-34z"/>
					<path id="&lt;Path&gt;" class="s8" d="m160.5 372.7c0 0 140.2-3.6 258.7-1.6 118.6 2.1 155.8 4.6 155.8 4.6 0 0-97.4 4.2-214.5 5.8-117.1 1.7-197.5-1.6-197.5-1.6z"/>
					<path id="&lt;Path&gt;" class="s9" d="m437.3 275.8c45.5-0.8 129.5 15.6 175.4 15.5 45.9-0.2 126.1-0.8 126.1-0.8 0 0-124 4.7-204.9 4.8-80.9 0-210.3 4.2-210.3 4.2 0 0 68.2-22.8 113.7-23.7z"/>
				</g>
				<g id="&lt;Group&gt;">
					<path id="&lt;Path&gt;" class="s10" d="m950.6 473.9l-542.4-9.7 260.2-42 2.2 1.6 161.8-51.1 16 3.2 19.5 18.7 83 63.7z"/>
					<path id="&lt;Compound Path&gt;" fill-rule="evenodd" class="s11" d="m408.2 464.2l260.2-42-111 25 82.4-15.2-4.4 25 9.1-8.6 106.3-24.7-102.9 21.4 22.7-21.3 161.8-51.1-66.6 26 27.4-7.8 39.2-18.2 16 3.2 19.5 18.7 7.9 11.1 54.9 48-4.6 12.6-64.8-57.5-10.7-8.6 41.8 41.9 33.3 25.2-2.2 6.1-36.6-0.7-23.9-19 3.5 18.7zm277.7-15.1l-14.1 3.3 21.1-2.4 3.3-2.7zm160.2-20.5l5.7 12.4 7.8 7.9z"/>
					<path id="&lt;Path&gt;" class="s12" d="m832.4 372.7l-4.5 11.5-76.8 27.3 67-17.7-33.7 18.3 5.9 10.5-40.3 47.7-120.3-2.2 5.7-11.1 35.2-33.2z"/>
					<path id="&lt;Path&gt;" class="s3" d="m639.8 432l-4.4 25-19.8 10.9-207.4-3.7 260.2-42 2.2 1.6-35.2 33.2z"/>
					<path id="&lt;Path&gt;" class="s3" d="m750 470.3l-100.3-1.8 29.9-9 97.9-22.1 6.6-7.4-112.3 22.4-36.4 4.6 5.4-5.1 149.5-29.3z"/>
					<path id="&lt;Path&gt;" class="s3" d="m636.8 449l-139.6 16.8-38.8-0.7 99-17.9 82.4-15.2z"/>
					<path id="&lt;Path&gt;" class="s3" d="m668.4 422.2l-99.3 22.8-160.9 19.2z"/>
				</g>
			</g>
		</g>
	</g>
</svg>