<svg version="1.2" xmlns="http://www.w3.org/2000/svg" viewBox="0 0 1000 400" width="4000" height="1600">
	<title>62Z_2107</title>
	<style>
		.s0 { fill: #ffffff } 
		.s1 { fill: #635eb0 } 
	</style>
	<g id="&lt;Group&gt;">
		<path id="&lt;Path&gt;" class="s0" d="m479.1 24.3c20.9 0 38.1 15.8 40.3 36.2q0.2 2.1 0.2 4.4c0 3.3-0.4 6.6-1.2 9.7-4.3 17.7-20.3 30.8-39.3 30.8-22.4 0-40.6-18.1-40.6-40.5 0-22.4 18.2-40.6 40.6-40.6z"/>
		<g id="&lt;Group&gt;" style="opacity: .2">
			<path id="&lt;Path&gt;" class="s1" d="m489.3 92.3c-0.5 1.1-0.8 2-1.7 2.9-1 1-1.7 1.2-2.9 1.5-0.7 0.2-0.9 0.5-1.8 0.5-0.6 0-1.4-0.2-2 0-1.2 0.3-1.9 1.4-3.4 1.5-1.3 0-2.2-0.4-3.4-0.8-1.1-0.3-2.4-0.8-3.5-1.2-1.1-0.4-2.1-0.7-3.3-1.1-1.2-0.4-1.9-1.2-3.5-0.8-0.1 0.6 0.1 1.5-0.6 1.8-0.5 0.2-1.3-0.3-1.9-0.5-1.3-0.5-2.6-0.8-3.9-1.4-0.6-0.2-1.1-0.2-1.7-0.7-0.6-0.5-1.3-0.8-2-1.2-1.1-0.8-2.3-1.7-3.5-2.5-2.3-1.5-3.7-3.6-5.1-5.9-0.7-1.2-1.1-2.5-1.6-3.8-0.5-1.7-0.4-2.1 0.7-3.5 2 0.8 2.8-0.4 2.3-2.5-0.5-1.9-0.7-4.3-0.3-6.3 0.1-0.3 0.3-0.6 0.4-1.1 0.1-0.5-0.1-0.9 0.1-1.4 0.2-0.9 0.4-1.5 0.4-2.5 0-1-0.2-2 0.1-3 0.1-0.5 0.3-0.8 0.4-1.4 0-0.7-0.1-1.2 0.1-1.9 0.4-1.6 1.9-2.1 3.3-2.5 0.9-0.4 1.4-0.7 2-0.1 0.6 0.7 0.4 1.6 0.5 2.5 0 1.6-1.1 3.1-2 4.4-0.4 0.6-1.1 1.2-1 2 0 0.5 0.6 0.5 0.6 1-0.1 0.5-0.7 0.7-1 1.1-2.3 3 2.1 5.7 4.2 7.3 1.2 1 3 1.4 3.5 3 0.5 1.6-0.7 3-1.3 4.4-0.6 1.5-1.1 4.1-0.2 5.4 0.4 0.6 1.1 1 1.7 1.2 0.9 0.5 1.2 1 2 1.5 1.2 0.9 2.7 1.2 4.3 1.1 0.9 0 1.6-0.4 2.4-1 0.6-0.4 1.4-1.1 2.1-1.3 0.5-0.2 0.9-0.1 1.4-0.1 0.7-0.1 0.8-0.4 1.4-0.5 1-0.3 1.8 0.4 2.6 0.8 0.7 0.4 1.5 0.9 2.4 0.7 0.8-0.2 1.7-0.8 2.5-0.9 1.9-0.4 4.9-0.5 6.4 0.7 0.8 0.7 1 1.6 1.7 2.3 0.7 0.6 1.9 0.8 2.1 2.3z"/>
			<path id="&lt;Path&gt;" class="s1" d="m453.5 49.5c-0.3 1.3-3.4 2.2-4.5 2-2.6-0.3-0.4-2.3-0.5-3.9 0-1.1-0.1-2.2 0.4-3.1 0.4-0.7 1.2-1.2 1.7-1.7 1.2-1.1 2.6-2.1 3.9-3 1.5-0.9 3.8-2 5.2-0.4 0.5 0.5 1.1 1.3 1.1 2 0 0-0.4 1.2-0.5 1.3-0.1 0.4-0.2 0.7-0.3 1.1-0.6 1.3-1.9 2.6-3.1 3.4-1.5 1-3.1 2.4-4.9 2.3z"/>
			<path id="&lt;Path&gt;" class="s1" d="m483.4 100.9c-0.1-0.5 0.4-1 0.7-1.3 0.4-0.4 0.7-0.6 1.2-0.6 0.6 0.1 0.9 0.5 1.5 0.3 0.3 0 0.4-0.2 0.8-0.2 0.3 0.1 0.4 0.2 0.7 0.3 0.5 0.2 1 0.3 1.5 0.1 0.5-0.1 1 0 1.2-0.6 0.1-0.2 0.1-0.3 0.1-0.5 0.1-0.1 0.2-0.1 0.2-0.2 0.2-0.2 0.3-0.4 0.2-0.7-0.2-0.4-0.8-0.6-1-1-0.3-0.4-0.4-0.7-0.5-1.2 0-0.5-0.1-1.2 0.1-1.7 0.1-0.3 0.4-0.8 0.6-1.1 0.6-0.9 0.8-1.5 0-2.4-0.4-0.5-1.4-1-1.6-1.7-0.4-0.8 0.1-2.1 0.6-2.8 0.5-0.6 1.4-1.2 2.1-1.6 0.8-0.5 1.7-0.6 2.5-0.8q0.7-0.2 1.4-0.5c0.4-0.2 0.7-0.3 1.1-0.5 0.9-0.4 1.6-1 2.6-1.3 1.1-0.3 2.3-0.2 3.4 0.3 1 0.5 2 0.7 3.1 1 1 0.3 1.9 0.8 2.1 2 0.1 0.6-0.1 1.2 0 1.8 0 0.2 0.2 0.3 0.2 0.5 0.1 0.3-0.1 0.6 0 0.9 0.1 0.2 0.3 0.2 0.4 0.4 0.2 0.3 0.1 0.5 0.1 0.8 0.1 0.7 0.4 0.5 0.9 0.3 0.8-0.4 1.6-1.1 2-1.8 0.2-0.4 0.4-1 0.5-1.4 0.1-0.3 0.4-0.9 0.3-1.2-0.3 0.2-1.7 0.4-1.9 0.1-0.3-0.2 0.2-1.1 0.2-1.4 0.2-0.7 0.9-2.1 0.4-2.9-0.1-0.2-0.3-0.4-0.4-0.6q-0.2-0.2-0.3-0.4c-0.2-0.5-0.3-0.9-0.2-1.5 0.1-0.2 0.5-0.8 0.8-0.9 0.3-0.2 0.6 0 0.9-0.1 0.3 0 0.4-0.2 0.6-0.3 0.6-0.1 1.1 0 1.6-0.2 0.4-0.1 1-0.4 1.3-0.7 0.5-0.4 0.4-0.7 0.4-1.3 0-0.3 0.1-0.4 0.2-0.7 0-0.2 0-0.5 0.1-0.7 0.1-0.4 0.5-0.8 0.7-1.1 0.5-0.5 0.8-0.6 0.8-1.4-0.1-0.6 0.2-0.9 0.2-1.6 0-0.3-0.2-1.7 0.4-1.6 0.2 0.4 0 0.7 0.1 1 0 0.3 0.2 0.4 0.2 0.6 0.2 0.5 0.1 1.3 0 1.9 0 0.6-0.2 1-0.2 1.7 0 0.2 0.1 0.6 0 0.9-0.1 0.2-0.2 0.3-0.3 0.5 0 0.4 0.1 0.7 0.1 1.1-0.1 0.2-0.3 0.3-0.3 0.5-0.1 0.3 0.1 0.6 0 0.9 0 0.3-0.2 0.4-0.3 0.6 0 0.3 0.1 0.6 0.1 0.9-0.1 0.2-0.2 0.4-0.3 0.6-0.1 0.5-0.1 1-0.3 1.5-0.1 0.4-0.4 0.8-0.5 1.2-0.2 0.5-0.5 1-0.8 1.5-0.4 0.7-0.8 1.4-1.1 2.2-0.8 1.5-2 2.6-3 4-0.5 0.7-1 1.4-1.6 2.1-0.3 0.3-0.6 0.4-0.9 0.6-0.3 0.3-0.5 0.6-0.8 0.8-1.2 1.1-2.4 2.1-3.5 3.3-1.2 1.2-2.7 2-4 3-0.3 0.3-0.9 0.5-1.2 0.7-0.4 0.3-0.8 0.3-1.1 0.4-0.9 0.2-1.8 0.5-2.7 0.7-0.2 0-0.4 0-0.5 0-0.1 0.1-0.1 0.2-0.2 0.2-0.3 0-0.5 0-0.8 0-0.3 0.1-0.7 0.3-1.1 0.4-0.9 0.2-1.8 0.4-2.8 0.6-1 0.3-2 0.3-3.1 0.3-0.5-0.1-0.9 0-1.4 0.2-0.5 0.2-1.1 0.5-1.5 0-0.3-0.4-0.9-0.7-1-1.2z"/>
			<path id="&lt;Path&gt;" class="s1" d="m489.1 83.7q-0.3-0.1-0.5-0.2c-0.3 0.4-0.8 0.9-1.3 1.2-0.7 0.4-1 0.1-1.2-0.6-0.1-0.4 0.1-0.7 0.2-1 0.1-0.3 0-0.6 0.4-0.8 0.4-0.3 1.8-0.2 1.6 0.6z"/>
			<path id="&lt;Path&gt;" class="s1" d="m512.8 51.5c-0.6-0.1-1.3 0.2-1.9 0-0.4-0.1-0.8-0.6-1.3-0.7-0.4-0.1-0.4 0.1-0.7 0.2-0.3 0-0.6 0-0.9 0.1-0.2 0-0.5 0.2-0.8 0.2-0.3 0.1-0.5 0.2-0.9 0.2-0.7 0-1.2 0.1-1.7-0.3-0.5-0.4-0.6-1-0.9-1.6-0.2-0.6-0.5-1-0.3-1.7q0.1-0.1 0.2-0.3 0-0.3-0.1-0.5c0.1-0.3 0.2-0.6 0.3-0.9 0.2-0.6 0.3-1.1 0.2-1.8 0-0.7 0.1-1.4 0.7-1.8 0.7-0.5 2.7-0.9 1.5-2.1-0.8-0.7-1.7-0.7-2.2-1.7-0.5-0.9-1.1-1.8-1.4-2.7 0.5-0.3 1.6 0.8 2 1.1 0.1 0.1 0.4 0.1 0.5 0.2 0.1 0.1 0.3 0.3 0.4 0.4 0.5 0.3 0.9 0.6 1.4 0.9 1.2 1.1 2.1 2.4 2.9 3.7 0.5 0.8 0.9 1.5 1.3 2.2 0.2 0.4 0.4 0.7 0.6 1.1 0.2 0.5 0.3 1 0.4 1.4 0.2 0.4 0.2 0.7 0.4 1.2 0 0.3 0.3 0.7 0.3 1.1 0.1 0.2 0.1 0.4 0.1 0.6 0 0.3 0.2 0.4 0.2 0.7 0.1 0.4 0.1 1.1 0 1.5q-0.3 0.1-0.5-0.2c0.3-0.3 0.3-0.4 0.2-0.5z"/>
			<path id="&lt;Path&gt;" class="s1" d="m466.7 83.4c0.7-0.1 1.6 0.8 2.1 1.4 0.5 0.8-0.5 1.7-1.1 2.1-0.3 0.1-0.5 0.3-0.7 0.4-0.2 0.1-0.5 0.3-0.7 0.3-0.4 0-0.6-1-0.7-1.4-0.5-1.1 0.3-1.8 1.1-2.5z"/>
			<path id="&lt;Path&gt;" class="s1" d="m463.4 85.2c-0.4 0-1.3-0.1-1.3-0.7 0-0.3 0.7-1 1.1-0.9 0 0.4 0.4 1 0.2 1.5q-0.1 0-0.2-0.1z"/>
			<path id="&lt;Path&gt;" class="s1" d="m456.8 61.2c0.2-0.9 1.5 0.1 1.8 0.4 0.2 0.2 0.5 0.4 0.6 0.7 0.2 0.3 0.2 0.7 0.2 1.2 0 0.4 0.2 0.8 0.1 1.2 0 0.5 0 1-0.1 1.4-0.3 0.8-0.8 1.4-1.5 1.9-0.3 0.2-0.7 0.3-1.1 0.5-0.5 0.3-0.5 0.4-1 0.2-0.6-0.3-1.2-0.6-1.6-1.1-0.5-0.5-1.1-1-1.4-1.7-0.5-0.8 0-1.4 0.4-2.2 0.5-0.8 1.3-1.5 2-2.3 0.2-0.2 0.5-0.6 0.7-0.7 0.5-0.3 1 0.1 0.9 0.5z"/>
			<path id="&lt;Path&gt;" class="s1" d="m457.2 57.9c0.1 0.4-0.5 0.7-0.8 0.4-0.3-0.3-0.1-0.9 0.1-1.2 0.2-0.2 0.6-0.7 0.8-0.5 0.4 0.2-0.2 1-0.2 1.2q0 0.1-0.1 0.1z"/>
			<path id="&lt;Path&gt;" class="s1" d="m465.1 98c0.2-0.3 1-0.4 1.3-0.3 0.5 0.1 0.9 0.2 1.3 0.3 0.9 0.2 2.1 0.6 2.9 1.1 1.1 0.7 3.1 2.7 1.2 3.7-0.8 0.4-1.8 0.3-2.7 0.4-0.5 0-0.7-0.2-1.2-0.2-0.5 0-0.9-0.2-1.4-0.3-0.8-0.2-1.6-0.4-2.4-0.8-0.7-0.3-1.2-0.8-1.8-1.3-0.6-0.7-0.7-1.6 0-2.3 0.4-0.4 0.7-0.3 1.3-0.3 0.5 0 1.1 0 1.5 0z"/>
			<path id="&lt;Path&gt;" class="s1" d="m460.3 97.5c-0.1 0.6-1.2 0.9-1.7 0.6-0.4-0.2-1-0.9-0.9-1.5 0.2-0.8 1.1-0.2 1.6 0 0.3 0.1 1.3 0.8 1.1 1.2q-0.2 0.1-0.3-0.1z"/>
			<path id="&lt;Path&gt;" class="s1" d="m444.9 63q0.1 0 0.1 0c0.2 0.8-0.1 1.5-0.1 2.2-0.1 0.7 0 1.5 0 2.2q0 1.1 0 2.2c0 0.3 0 0.6-0.1 0.9 0 0.1-0.1 0.2-0.1 0.4 0 0.2 0 0.5 0 0.7 0 0.4 0 0.7 0 1.1-0.1 0-0.2 0.3-0.2 0.4-0.1 0.2 0 0.2-0.1 0.4-0.4 0.5-1 0.8-1.5 0.6-0.5-0.3-0.8-0.6-1.3-0.8-0.7-0.3-1-0.7-1.3-1.3-0.3-0.5-0.4-1.1-0.5-1.7-0.1-0.1-0.2-0.2-0.2-0.3-0.1-0.2 0-0.4-0.1-0.5 0-0.2-0.1-0.3-0.1-0.4q0-0.2 0-0.4 0-0.2-0.2-0.2c0-0.3 0-0.6 0-0.9 0-0.4-0.2-0.7-0.2-1.1 0-0.4-0.2-0.7-0.2-1.1q0-0.6 0-1.1 0-1.1 0-2.2c0-0.4 0.1-0.6 0.2-0.9 0.1-0.4 0.1-0.8 0.2-1.1 0-0.3 0.3-0.6 0.3-0.8 0.1-0.4 0.2-0.6 0.4-0.9 0.4-0.6 0.6-0.8 1.3-1.1 0.6-0.3 1.4-0.2 2 0.2 0.2 0.2 0.5 0.5 0.6 0.7 0 0.2 0 0.4 0 0.5 0.1 0.2 0.2 0.4 0.2 0.6 0 0.7-0.2 1.7 0 2.4 0 0.4 0.3 0.8 0.4 1.1 0.1 0.5 0.1 0.8 0.5 0.2z"/>
			<path id="&lt;Path&gt;" class="s1" d="m445.8 53.7c0.5-0.2 0.7 0.9 0.7 1.2 0 0.3 0.1 0.7-0.1 0.9-0.2 0.1-0.8 0.1-1 0.1-0.6-0.2-0.5-1-0.5-1.5 0-0.5 0.4-1.2 1.1-1.1z"/>
			<path id="&lt;Path&gt;" class="s1" d="m508.7 52.9q0-0.1 0-0.1c0.2 0 0.3-0.2 0.5-0.2 0.2-0.1 0.4-0.1 0.6 0 0.4 0 0.7-0.2 1.1-0.2 0.2-0.1 0.4 0 0.6 0 0.3 0 0.4 0.1 0.5 0.1 0.4 0.1 0.7 0.1 1.1 0.3 0.5 0.4 1 1.1 1.3 1.7 0.4 0.7 0.7 1.4 0.7 2.3 0 0.3 0 0.7-0.2 1-0.2 0.3-0.3 0.5-0.5 0.8-0.3 0.8-0.6 1.1-1.5 1.1-0.8 0-1.5-0.5-2.2-0.8-0.3-0.2-0.6-0.4-0.8-0.6-0.3-0.2-0.6-0.3-0.8-0.6-0.4-0.7-0.5-1.5-0.7-2.2-0.1-0.4-0.2-1-0.1-1.4 0.1-0.1 0.1-0.1 0.2-0.1 0-0.2 0-0.3 0-0.4 0.1-0.3 0.3-0.4 0.2-0.7z"/>
			<path id="&lt;Path&gt;" class="s1" d="m507 54.6c0.1 1.5-2.4 1.4-2-0.3 0.1-0.4 0.5-1.1 1-1.2 0.5 0 1.1 1.3 0.7 1.3z"/>
			<path id="&lt;Path&gt;" class="s1" d="m500.6 57.3c0.1 0.4 0.4 0.6 0.5 1 0.1 0.3 0 0.6-0.2 0.9-0.2 0.2-0.5 0.6-0.8 0.5-0.3 0-0.5-0.5-0.8-0.6-0.4-0.4-1.3-0.8-0.7-1.5 0.2-0.3 0.7-0.4 1-0.5 0.6 0 0.8 0.1 1.2 0.4z"/>
			<path id="&lt;Path&gt;" class="s1" d="m513.5 73.3c0 0.4-0.2 1.3-0.6 1.6-0.5 0.3-1.4-0.3-1.6-0.7-0.3-0.6 0-1.2 0.5-1.6 0.3-0.2 0.8-0.4 1.1-0.4 0.3-0.1 0.6 0.1 0.9 0.2 0.1 0.4 0.2 1.4-0.5 1.2z"/>
			<path id="&lt;Path&gt;" class="s1" d="m461.4 32.9c0.5 0.2 1.1 0.7 1.4 1.1 0.1 0.2 0.2 0.5 0.2 0.7 0 0.1-0.3 0.7-0.4 0.8-0.3 0.4-0.6 0.8-0.9 1.2-0.4 0.5-0.8 0.9-1.3 0.3-0.3-0.3-0.8-0.7-1.1-1.1-0.2-0.2-0.3-0.5-0.3-0.7 0.1-0.2 0.3-0.7 0.5-0.9 0.3-0.3 0.8-0.8 1.2-1 0.3-0.1 0.6 0 0.9 0.2 0.3 0.2 0.1 0.4 0 0.7z"/>
			<path id="&lt;Path&gt;" class="s1" d="m457.2 35.7q0 0 0.1 0c0.2 0.5 0 0.8-0.5 0.9-0.4 0.1-1-0.1-1.1-0.5-0.1-0.3 0.3-0.7 0.5-0.9 0.5-0.3 0.9-0.4 1 0.3z"/>
			<path id="&lt;Path&gt;" class="s1" d="m459.9 82.6c0 0.2 0.2 0.7 0.2 0.9 0.1 0.3 0.3 0.6 0.4 0.9q0.2 0.4 0.2 0.9c0.1 0.3 0.3 0.6 0.3 0.9 0.2 0.7-0.7 1.2-1.3 1-0.5-0.1-1-0.5-1.5-0.9-0.3-0.2-0.4-0.1-0.5-0.5-0.2-0.3-0.2-0.7-0.3-1-0.1-0.3-0.2-0.5-0.2-0.9 0-0.4-0.1-0.7 0-1.1 0.4-1.7 2.3-0.6 2.7 0.6z"/>
			<path id="&lt;Path&gt;" class="s1" d="m454 94.2c0.7 0.1 1.1 1.1 0.3 1.4-0.6 0.3-1.7 0-2.1-0.6-0.2-0.4-0.2-0.7 0-1.1 0.2-0.4 0.2-0.5 0.7-0.5 0.5 0 1.7 0.5 1.5 1.1z"/>
			<path id="&lt;Path&gt;" class="s1" d="m462.1 81.9c-0.4 0.2-1.5 0.4-2 0.1-0.5-0.3-0.7-0.9-0.8-1.4-0.2-0.5-0.3-1.5-0.1-2.1 0.1-0.6 0.7-1 1.2-1.4 0.3-0.2 0.8-0.4 1.2-0.5 0.3-0.1 0.6-0.2 0.9-0.2 0.3-0.1 0.7-0.1 0.9 0.2 0.2 0.4-0.1 0.7-0.2 1.1-0.1 0.3 0.1 0.7 0 1.1 0 0.2-0.1 0.3-0.2 0.5 0 0.2 0.1 0.4 0 0.6 0 0.2-0.1 0.2-0.1 0.4-0.1 0.2 0 0.3 0 0.5-0.1 0.2-0.4 0.5-0.6 0.5z"/>
			<path id="&lt;Path&gt;" class="s1" d="m458.1 81q0-0.1 0-0.1c0.1 0.8-0.9 0.7-1.1 0.1-0.3-0.8 0.9-1 1.1-0.2z"/>
		</g>
	</g>
</svg>